<svg xmlns="http://www.w3.org/2000/svg" width="181" height="44" fill-rule="evenodd" clip-rule="evenodd" stroke-linecap="round" stroke-linejoin="round" stroke-width="0" fill="#2A3743" stroke="#2A3743"><path d="M44.098 22c0 12.15-9.872 22-22.049 22S0 34.15 0 22 9.872 0 22.049 0s22.049 9.85 22.049 22" fill="#1576D1" stroke="none"/><path d="M24.053 18h4.01c1.106 0 2.004.895 2.004 2s-.898 2-2.005 2h-4.009v4c0 1.105-.897 2-2.004 2a2.002 2.002 0 0 1-2.004-2v-4h-4.01a2.002 2.002 0 0 1-2.004-2c0-1.105.898-2 2.005-2h4.009v-4c0-1.105.897-2 2.004-2s2.004.895 2.004 2v4zM9.896 29.003a1.998 1.998 0 0 1 .728-2.733 2.007 2.007 0 0 1 2.74.727c.2.345.423.68.665 1.001A9.942 9.942 0 0 0 22.049 32a9.939 9.939 0 0 0 8.02-4.002c.244-.324.466-.658.664-1a2.007 2.007 0 0 1 2.74-.729 1.998 1.998 0 0 1 .73 2.733c-.28.48-.589.947-.928 1.398A13.95 13.95 0 0 1 22.049 36a13.954 13.954 0 0 1-11.226-5.6 14.161 14.161 0 0 1-.927-1.397z" fill="#FFF" fill-rule="nonzero" stroke="none"/><path d="M61.116 25.817c0-.623-.22-1.102-.662-1.436-.44-.334-1.235-.686-2.382-1.057-1.147-.37-2.055-.735-2.725-1.094-1.823-.984-2.735-2.308-2.735-3.974 0-.865.245-1.638.734-2.316.489-.679 1.19-1.209 2.107-1.59.915-.382 1.943-.573 3.082-.573 1.147 0 2.17.207 3.066.622.898.415 1.595 1 2.09 1.755.497.756.745 1.614.745 2.576h-3.309c0-.734-.231-1.304-.695-1.712-.463-.407-1.114-.61-1.952-.61-.809 0-1.438.17-1.886.511-.448.341-.673.79-.673 1.348 0 .521.263.958.789 1.31.526.352 1.3.682 2.322.99 1.882.566 3.254 1.266 4.114 2.103.86.836 1.29 1.878 1.29 3.125 0 1.387-.525 2.475-1.577 3.263-1.052.79-2.467 1.184-4.247 1.184-1.235 0-2.36-.226-3.375-.677-1.014-.451-1.788-1.07-2.322-1.855-.533-.785-.8-1.694-.8-2.73h3.321c0 1.77 1.059 2.653 3.176 2.653.787 0 1.401-.16 1.842-.479.442-.319.662-.764.662-1.337m10.109-.297l2.206-7.407h3.419L72.052 31.87l-.265.628c-.713 1.555-1.89 2.333-3.53 2.333a5.02 5.02 0 0 1-1.411-.21v-2.41l.485.012c.603 0 1.053-.092 1.351-.276.298-.183.531-.488.7-.913l.376-.98-4.18-11.94h3.43l2.217 7.406zm9.872-7.407l.099 1.332c.846-1.034 1.989-1.552 3.43-1.552 1.537 0 2.592.606 3.166 1.816.838-1.21 2.033-1.816 3.585-1.816 1.294 0 2.257.376 2.89 1.128.632.752.948 1.884.948 3.396v7.604h-3.199v-7.61c0-.678-.132-1.172-.397-1.485-.265-.313-.731-.469-1.4-.469-.957 0-1.619.456-1.986 1.368l.011 8.196h-3.188v-7.6c0-.691-.136-1.191-.408-1.5-.272-.31-.735-.464-1.39-.464-.904 0-1.558.376-1.963 1.126v8.438h-3.188V18.113h2.99zm24.123 5.822c0-1.111-.197-1.969-.591-2.572-.393-.604-.965-.905-1.715-.905-1 0-1.687.382-2.063 1.148v4.89c.39.788 1.085 1.181 2.085 1.181 1.522 0 2.283-1.247 2.283-3.742zm3.187.242c0 1.835-.417 3.304-1.252 4.408-.835 1.104-1.961 1.656-3.38 1.656-1.207 0-2.18-.418-2.924-1.254V34.6h-3.188V18.113h2.957l.11 1.167c.772-.925 1.78-1.387 3.022-1.387 1.471 0 2.614.543 3.43 1.63.817 1.085 1.225 2.582 1.225 4.49v.164zm5.791-8.991v2.928h2.04v2.332h-2.04v5.944c0 .44.084.755.253.946.17.19.493.286.971.286.353 0 .665-.026.938-.077v2.41a6.574 6.574 0 0 1-1.93.287c-2.236 0-3.376-1.127-3.42-3.38v-6.416h-1.743v-2.332h1.743v-2.928h3.188zm6.177 8.997c0 1.132.212 1.998.64 2.595.426.6 1.036.899 1.83.899.772 0 1.375-.295 1.809-.888.434-.59.651-1.537.651-2.837 0-1.11-.217-1.969-.651-2.579-.434-.61-1.044-.915-1.831-.915-.78 0-1.382.303-1.809.91-.427.606-.64 1.544-.64 2.815zm-3.188-.226c0-1.181.228-2.234.684-3.158a5.002 5.002 0 0 1 1.968-2.146c.857-.506 1.852-.76 2.984-.76 1.61 0 2.925.492 3.943 1.475 1.019.983 1.587 2.319 1.705 4.006l.022.815c0 1.826-.512 3.292-1.533 4.396-1.023 1.104-2.394 1.656-4.115 1.656-1.72 0-3.094-.55-4.12-1.65-1.025-1.1-1.538-2.598-1.538-4.49v-.144zm16.258-5.844l.1 1.332c.845-1.034 1.988-1.552 3.43-1.552 1.536 0 2.592.606 3.165 1.816.839-1.21 2.033-1.816 3.585-1.816 1.294 0 2.257.376 2.89 1.128.632.752.949 1.884.949 3.396v7.604h-3.2v-7.61c0-.678-.132-1.172-.396-1.485-.265-.313-.732-.469-1.401-.469-.956 0-1.618.456-1.985 1.368l.01 8.196h-3.187v-7.6c0-.691-.136-1.191-.409-1.5-.271-.31-.735-.464-1.389-.464-.904 0-1.56.376-1.964 1.126v8.438h-3.187V18.113h2.989zm20.847 9.697c.47 0 .904-.105 1.301-.314.397-.21.692-.49.883-.842v-2.047h-1.191c-1.596 0-2.446.55-2.548 1.65l-.012.187c0 .397.14.723.42.98.28.257.661.385 1.147.385zm2.636 2.211c-.147-.286-.254-.642-.32-1.067-.772.858-1.775 1.288-3.011 1.288-1.169 0-2.138-.338-2.906-1.013-.769-.675-1.153-1.526-1.153-2.553 0-1.262.469-2.23 1.406-2.906.938-.675 2.293-1.016 4.065-1.023h1.467v-.683c0-.55-.142-.99-.425-1.32-.283-.33-.73-.496-1.34-.496-.537 0-.958.129-1.263.386-.305.256-.458.608-.458 1.056h-3.187c0-.69.213-1.328.639-1.915.427-.587 1.03-1.047 1.81-1.381.779-.334 1.654-.5 2.624-.5 1.471 0 2.638.368 3.502 1.106.865.737 1.296 1.773 1.296 3.108v5.162c.008 1.13.166 1.985.475 2.564v.187h-3.221zm8.786-14.835v2.928h2.04v2.332h-2.04v5.944c0 .44.085.755.254.946.169.19.492.286.97.286.353 0 .666-.026.938-.077v2.41a6.576 6.576 0 0 1-1.93.287c-2.236 0-3.376-1.127-3.42-3.38v-6.416h-1.743v-2.332h1.743v-2.928h3.188zm8.695 5.272c-.633 0-1.145.213-1.539.64-.393.428-.645 1.04-.756 1.836h4.435v-.254c-.015-.708-.206-1.255-.574-1.642s-.89-.58-1.566-.58m.364 9.783c-1.75 0-3.175-.535-4.275-1.607-1.099-1.07-1.648-2.498-1.648-4.28v-.309c0-1.196.231-2.265.694-3.208.464-.943 1.12-1.669 1.969-2.179.85-.51 1.818-.765 2.906-.765 1.633 0 2.918.514 3.856 1.541.937 1.027 1.406 2.484 1.406 4.37v1.298h-7.6c.103.778.414 1.401.933 1.87.518.47 1.174.705 1.968.705 1.228 0 2.188-.444 2.88-1.331l1.565 1.75c-.478.674-1.124 1.2-1.94 1.578-.817.378-1.722.567-2.714.567" stroke="none"/></svg>
