<svg xmlns="http://www.w3.org/2000/svg" width="304" height="212"><defs><linearGradient x1="96.936%" y1="54.068%" x2="3.394%" y2="45.595%" id="a"><stop stop-color="#EBF5FF" offset="0%"/><stop stop-color="#FFF" offset="100%"/></linearGradient></defs><g fill="none" fill-rule="evenodd"><g fill="#2686E1" transform="translate(120)"><circle opacity=".23" cx="91.75" cy="91.75" r="91.661"/><circle opacity=".706" cx="91.5" cy="91.5" r="62.86"/></g><g transform="translate(171 52)"><circle fill="#EAEEF2" cx="40" cy="40" r="39"/><path d="M47.5 38H42v-5.5a2 2 0 1 0-4 0V38h-5.5a2 2 0 1 0 0 4H38v5.5a2 2 0 1 0 4 0V42h5.5a2 2 0 1 0 0-4zM25.275 51.003c.34.586.715 1.153 1.124 1.698 3.244 4.316 8.21 6.799 13.6 6.799 5.393 0 10.36-2.483 13.602-6.8.412-.549.787-1.115 1.125-1.698a2 2 0 1 0-3.462-2.004 13 13 0 0 1-.862 1.3C47.916 53.608 44.134 55.5 40 55.5c-4.133 0-7.915-1.891-10.403-5.202a13.2 13.2 0 0 1-.862-1.301 2 2 0 1 0-3.46 2.006z" fill="#3A97EF" fill-rule="nonzero" stroke="#0962B5"/><path d="M40 .5v12m-33.5 6v42m67-41v41M40 70v9" stroke="#0962B5" stroke-linecap="round" stroke-linejoin="round"/><circle stroke="#0962B5" cx="40" cy="40" r="39.5"/><path d="M54.25 49.5a.888.888 0 0 1 .124 1.1l-.624.995a12.278 12.278 0 0 1-2.432 2.817l-.068.058a16.161 16.161 0 0 1-3.264 2.162l-.486.243a.185.185 0 0 1-.19-.318l1.562-1.093a14.736 14.736 0 0 0 2.503-2.214l.038-.042a9.523 9.523 0 0 0 1.712-2.708l.353-.847a.474.474 0 0 1 .772-.153z" fill="#1576D1"/><path d="M39.75 30.875l-.029.004a1.263 1.263 0 0 0-1.096 1.091l-.061.475a.44.44 0 0 0 .436.496.86.86 0 0 0 .748-.434l.503-.882a.504.504 0 0 0-.501-.75zM32.625 38.5c-.75 0-1.25.25-1.5.75a.655.655 0 0 0 .96.83l.04-.027a5.129 5.129 0 0 1 2.206-.869l1.794-.256a.215.215 0 0 0-.03-.428h-3.47z" fill="#79BEFF"/><path d="M47 41.5c.75 0 1.435-.37 1.685-.87a.655.655 0 0 0-.96-.831l-.04.027a5.304 5.304 0 0 1-2.204.887l-1.889.298a.246.246 0 0 0 .039.489H47z" fill="#1576D1"/><path d="M25.93 49.301l.01-.024a1.062 1.062 0 0 1 1.138-.659l.047.007c.556.08 1.05.396 1.354.868l.587.909a9.613 9.613 0 0 0 2.693 2.752l.567.383a.138.138 0 0 1-.135.24 11.712 11.712 0 0 1-2.846-1.865l-1.49-1.321a2.132 2.132 0 0 0-1.414-.538.549.549 0 0 1-.51-.752z" fill="#79BEFF"/><path d="M31.562 5.686L31.125 6a73.596 73.596 0 0 0-9.119 7.744L22 13.75a30.382 30.382 0 0 0-6.562 9.798L15.25 24a68.976 68.976 0 0 0-3.835 12.361l-.79 3.764a1.074 1.074 0 0 1-2.125-.22V24.008a12 12 0 0 1 2.97-7.902L12 15.5a38.15 38.15 0 0 1 7.96-6.892l.165-.108a34.732 34.732 0 0 1 9.952-4.42l.644-.172a1 1 0 0 1 .841 1.778z" fill="#FFF"/><path d="M19.532 25.023a8.997 8.997 0 0 1 2.08-4.774l.601-.707a13.824 13.824 0 0 1 4.51-3.49 2.23 2.23 0 0 1 3.163 1.594l.087.461a7.434 7.434 0 0 1-1.468 5.982l-.03.038a8.382 8.382 0 0 1-5.53 3.126l-1.032.13a2.128 2.128 0 0 1-2.38-2.36zM5 28.19v14.944a.944.944 0 0 1-1.75.491 9.817 9.817 0 0 1-1.368-6.219l.142-1.242c.317-2.77.895-5.503 1.726-8.164a.64.64 0 0 1 1.25.19z" fill="#FFF"/><path d="M15.705 66.663l.432.222a63.808 63.808 0 0 0 8.488 3.615l.327.112A39.994 39.994 0 0 0 33.25 72.5l1.891.223a2.67 2.67 0 0 1 2.359 2.652 1.91 1.91 0 0 1-2.32 1.866l-3.043-.668a42.135 42.135 0 0 1-9.387-3.26l-.247-.12a28.974 28.974 0 0 1-7.628-5.38.717.717 0 0 1 .83-1.15zM42.5 75.375a2.03 2.03 0 0 0 2.54 1.964l4.167-1.083a48.29 48.29 0 0 0 11.043-4.381l.687-.376A22.465 22.465 0 0 0 68.5 64.75a16.737 16.737 0 0 0 3.062-9.452l.388-32.386c.032-2.68-.93-5.275-2.7-7.287a33.757 33.757 0 0 0-6.177-5.488L62.875 10a.64.64 0 0 0-.86.928l.36.447a27.599 27.599 0 0 1 4.7 8.598l.05.152a41.26 41.26 0 0 1 2.005 10l.12 1.625a56.35 56.35 0 0 1-.613 13.426l-.235 1.41A30.193 30.193 0 0 1 64.75 56.75a33.687 33.687 0 0 1-6.866 8.381l-.134.119a28.366 28.366 0 0 1-9.615 5.579l-3.15 1.074a3.668 3.668 0 0 0-2.485 3.472zM76.375 28.25l.177.546a35.836 35.836 0 0 1 1.573 7.579c.25 2.578.257 5.173.023 7.752l-.026.278a32.68 32.68 0 0 1-1.747 7.97.708.708 0 0 1-1.375-.237V28.467a.705.705 0 0 1 1.375-.217z" fill="#D1D8DE"/></g><g transform="translate(157 88)"><path stroke="#0962B5" fill="#D1D8DE" d="M93.5 2.5h7v3h-7z"/><path d="M101.994 3.5H106v12.927a31.824 31.824 0 0 1-3.582 14.665L75.814 82.334a23.529 23.529 0 0 1-14.784 11.87l-7.099 1.908-1.045-3.855 7.101-1.908a19.525 19.525 0 0 0 12.269-9.85L98.86 29.257a27.84 27.84 0 0 0 3.134-12.83V3.5z" stroke="#0962B5" fill="#DEE3E8" fill-rule="nonzero" stroke-linecap="round" stroke-linejoin="round"/><path d="M6.006 3.5H2v12.927a31.824 31.824 0 0 0 3.582 14.665l26.604 51.242a23.529 23.529 0 0 0 14.784 11.87l7.099 1.908 1.045-3.855-7.101-1.908a19.525 19.525 0 0 1-12.269-9.85L9.14 29.257a27.84 27.84 0 0 1-3.134-12.83V3.5z" stroke="#0962B5" fill="#DEE3E8" fill-rule="nonzero" stroke-linecap="round" stroke-linejoin="round"/><circle stroke="#0962B5" fill="#1AC98E" cx="104" cy="4" r="3.5"/><path d="M101.883 3.42a1.76 1.76 0 0 1 .423-.955l.121-.14a2.85 2.85 0 0 1 .934-.702.468.468 0 0 1 .657.333l.016.083c.084.424-.024.863-.296 1.2l-.008.009c-.28.346-.684.569-1.126.621l-.242.029a.431.431 0 0 1-.479-.478z" fill="#87E8C7"/><path stroke="#0962B5" fill="#D1D8DE" d="M7.5 2.5h7v3h-7z"/><circle stroke="#0962B5" fill="#1AC98E" cx="4" cy="4" r="3.5"/><path d="M1.883 3.42a1.76 1.76 0 0 1 .423-.955l.121-.14a2.85 2.85 0 0 1 .934-.702.468.468 0 0 1 .657.333l.016.083c.084.424-.024.863-.296 1.2l-.008.009c-.28.346-.684.569-1.126.621l-.242.029a.431.431 0 0 1-.479-.478z" fill="#87E8C7"/><path d="M50.5 95.967c0-1.418 1.6-2.467 3.5-2.467s3.5 1.05 3.5 2.467v97.066c0 1.418-1.6 2.467-3.5 2.467s-3.5-1.05-3.5-2.467V95.967z" stroke="#0962B5" fill="#42D6A4" fill-rule="nonzero"/><path d="M55 100v88" stroke="#17B580" stroke-width="2" stroke-linecap="round" stroke-linejoin="round"/><path d="M54 97.5c-5.949 0-11.115-1.689-15.396-4.957-3.169-2.418-5.719-5.579-7.712-9.435a3.5 3.5 0 1 1 6.218-3.215c3.619 7 9.084 10.607 16.89 10.607 7.806 0 13.271-3.606 16.89-10.607a3.5 3.5 0 0 1 6.218 3.215c-1.993 3.856-4.543 7.017-7.712 9.435C65.114 95.811 59.948 97.5 54 97.5z" stroke="#0962B5" fill="#42D6A4" fill-rule="nonzero"/><path d="M54 95c5.524 0 10.184-1.586 13.985-4.469C70.975 88.263 73.26 85.344 75 82" stroke="#17B580" stroke-width="2" stroke-linecap="round" stroke-linejoin="round"/><path d="M31.883 81.42a1.76 1.76 0 0 1 .423-.955l.121-.14a2.85 2.85 0 0 1 .934-.702.468.468 0 0 1 .657.333l.016.083c.084.424-.024.863-.296 1.2l-.008.009c-.28.346-.684.569-1.126.621l-.242.029a.431.431 0 0 1-.479-.478z" fill="#A9EDD6"/><path d="M55.5 8v2.941c0 .368-.086.73-.25 1.059a1.677 1.677 0 0 1-.75.75.559.559 0 0 1-.75-.25.514.514 0 0 1 .269-.708l.106-.042a1.07 1.07 0 0 0 .67-.922L54.983 8a.268.268 0 0 1 .267-.249.25.25 0 0 1 .25.25z" fill="#1576D1"/></g><g stroke-width="2"><g transform="translate(39 206)"><circle stroke="#3A97EF" fill="#5CAAF4" cx="7" cy="7" r="7"/><path d="M7 4.667v4.666" stroke="#1576D1" stroke-linecap="round" stroke-linejoin="round"/></g><g transform="translate(61 39)"><circle stroke="#3A97EF" fill="#5CAAF4" cx="7" cy="7" r="7"/><path d="M7 4.667v4.666M9.333 7H4.667" stroke="#1576D1" stroke-linecap="round" stroke-linejoin="round"/></g><g transform="translate(1 89)"><circle stroke="#3A97EF" fill="#5CAAF4" cx="7" cy="7" r="7"/><path d="M7 4.667v4.666M9.333 7H4.667" stroke="#1576D1" stroke-linecap="round" stroke-linejoin="round"/></g></g><g transform="rotate(15 -357.415 455.043)"><rect fill="#DEE3E8" width="5" height="57" rx="2.5"/><path d="M3.212 1.598l.235.173a1 1 0 0 1 .407.81L3.602 54.45a.982.982 0 0 1-.728.944.57.57 0 0 1-.719-.556l.406-52.914a.409.409 0 0 1 .651-.326z" fill="#ACB7C1"/><path stroke="#0962B5" fill="#D1D8DE" stroke-linecap="round" stroke-linejoin="round" d="M14 34.5h3v25h-3z"/><rect stroke="#0962B5" stroke-linecap="round" stroke-linejoin="round" width="5" height="57" rx="2.5"/><path fill="#F1F4F6" d="M10 22h11v13H10z"/><path d="M13.736 28.843l3.52.043a2.343 2.343 0 0 1 2.313 2.364l-.004.386a2 2 0 0 1-1.966 1.982l-3.841.064a2.426 2.426 0 0 1-2.466-2.414 2.415 2.415 0 0 1 2.444-2.425z" fill="#D1D8DE"/><path stroke="#0962B5" stroke-linecap="round" stroke-linejoin="round" d="M10 22h11v13H10z"/><path fill="#F1F4F6" d="M5 2l5 20v13L5 55z"/><path d="M7.398 29.039a1.353 1.353 0 0 1 1.313 1.343l.011 1.667a21.64 21.64 0 0 1-.762 5.837l-.59 2.16a.682.682 0 0 1-1.34-.184l.056-9.557a1.274 1.274 0 0 1 1.312-1.266z" fill="#D1D8DE"/><path stroke="#0962B5" stroke-linecap="round" stroke-linejoin="round" d="M5 2l5 20v13L5 55z"/><rect fill="#5CAAF4" x="21" y="16.5" width="6" height="24" rx="3"/><path d="M24.988 18.151c.569.328.92.935.92 1.591l.02 17.314a1.742 1.742 0 0 1-.9 1.53.609.609 0 0 1-.903-.53l-.052-19.375a.61.61 0 0 1 .915-.53z" fill="#2686E1"/><rect stroke="#0962B5" stroke-linecap="round" stroke-linejoin="round" x="21" y="16.5" width="6" height="24" rx="3"/></g><path d="M103.632 162.553a3.499 3.499 0 0 1 4.32-2.42 3.507 3.507 0 0 1 2.415 4.329c-5.245 18.575-7.867 37.628-7.867 57.168v53.364A3.503 3.503 0 0 1 99 278.5c-1.933 0-3.5-1.57-3.5-3.506V221.63c0-20.185 2.71-39.88 8.132-59.077z" stroke="#0962B5" fill="#42D6A4" fill-rule="nonzero"/><path d="M100 274.5v-53.282c0-19.558 2.667-38.628 8-57.218" stroke="#17B580" stroke-width="2" stroke-linecap="round" stroke-linejoin="round"/><g transform="rotate(15 -277.99 177.575)" fill="url(#a)" stroke="#5CAAF4" stroke-linecap="round" stroke-linejoin="round"><path d="M69.75 12.25v14.029m0 7.762v15.766m0 5.46v9.483m2.5-52.5v4.525m0 4.911v11.16m0 5.154v20.435m-5-46.185v3.275m0 4.428v21.225m0 4.912v10.306m0 4.187v5.167M65 11.5v3.641m0 5.153v7.215m0 4.67v22.803m0 5.153v3.398M62.5 11.5v3.982m0 5.7v15.46m0 2.915v8.068m0 4.364V62.36"/><path d="M60 10.5v18.25m0 10.247v4.605m0 4.912v3.64m0 5.942V67" opacity=".969"/><path d="M57.5 10.5v28.25m0 3.744v12.674m0 4.67V68" opacity=".927"/><path d="M55 12.593V43.75m0 3.408v18.256" opacity=".89"/><path d="M52.5 9.5v33.91m0 4.395v6.035m0 4.2V68.5" opacity=".806"/><path d="M50 9v3.663m0 4.86V20.5m0 3.5v7.091m0 2.892V44m0 2.5v22.647" opacity=".79"/><path d="M47.5 8.5v3.296m0 3.092v18.609m0 3.378v6.468m0 3.865v6.732m0 4.67V69.5" opacity=".78"/><path d="M44.75 7.75v4.758m0 3.333v10.653m0 4.258V39m0 4.073v12.674m0 7.214v6.289" opacity=".748"/><path d="M42.25 7.25V19m0 3.25v7.07m0 3.2v3.73m0 3.08V50m0 3.302V70.25" opacity=".72"/><path d="M40 11.982v14.494m0 8.003v18.375m0 6.248V70.5" opacity=".682"/><path d="M37.5 7v15.694m0 6.249v9.822m0 7.28v5.395m0 5.7v11.538" opacity=".656"/><path d="M35 6.5v10.964m0 3.64v11.643m0 6.972v11.643m0 7.52V71.5" opacity=".631"/><path d="M32.5 6v4.348m0 4.912v10.854m0 4.977v20.173m0 4.235V71.5" opacity=".577"/><path d="M30 6v11.727m0 7.28V47.06m0 3.665V72.5" opacity=".557"/><path d="M27.5 5.5v11.119m0 7.214V43m0 3.42V73" opacity=".527"/><path d="M25 5v14.327m0 4.67V58.28m0 3.497v9.779" opacity=".487"/><path d="M22.5 8.396V19.25m0 5.46v20.217m0 3.273v25.3" opacity=".47"/><path d="M19.75 3.75v9.786m0 5.154v38.755m0 3.936v8.309" opacity=".436"/><path d="M17.5 3.5v11.408m0 5.153V40.5m0 3.5v30" opacity=".408"/><path d="M15 3v9.222m0 8.55v8.246m0 8.31v10.306m0 10.37V75" opacity=".385"/><path d="M12.5 8.746V24.27m0 8.551v36.991" opacity=".34"/><path d="M10 2v6.91m0 6.973v12.674m0 7.762v24.075m0 7.52V75.5M7.5 5.676v25.106m0 9.034v9.582m0 5.46V76" opacity=".304"/><path d="M5 1v13.085m0 7.038v35.412m0 7.52V76.5" opacity=".202"/><path d="M2.5.5v22.848m0 8.487v30.324m0 8.003V77" opacity=".156"/><path d="M0 0v14.896m0 7.762V37.7m0 8.55v15.284m0 8.003V77.5" opacity=".068"/></g><g transform="translate(61.65 115.882)" stroke="#FFF" stroke-width="2"><circle fill="#FF6A67" cx="12" cy="12" r="11.868"/><path d="M12 8.044v7.912M15.956 12H8.044" stroke-linecap="round" stroke-linejoin="round"/></g></g></svg>
