<svg xmlns="http://www.w3.org/2000/svg" width="856" height="730" fill-rule="evenodd" clip-rule="evenodd" stroke-linecap="round" stroke-linejoin="round"><defs><linearGradient id="a" x1="96.936%" x2="3.394%" y1="54.068%" y2="45.595%"><stop offset="0%" stop-color="#EBF5FF"/><stop offset="100%" stop-color="#FFF"/></linearGradient></defs><g fill="none"><g fill="#2686E1" transform="translate(287)"><circle cx="284.5" cy="284.5" r="284.5" opacity=".158"/><circle cx="285" cy="285" r="183" opacity=".23"/><circle cx="284.5" cy="284.5" r="125.5" opacity=".706"/></g><g stroke-width="2"><g transform="translate(175 328)"><circle cx="11" cy="11" r="11" fill="#FFF" stroke="#79BEFF"/><path stroke="#E55353" d="M11 7.333v7.334M14.667 11H7.333"/></g><g transform="translate(94 410)"><circle cx="11" cy="11" r="11" fill="#FFF" stroke="#79BEFF"/><path stroke="#E55353" d="M11 7.333v7.334M14.667 11H7.333"/></g><g transform="translate(147 510)"><circle cx="9" cy="9" r="9" fill="#FFF" stroke="#79BEFF"/><path stroke="#E55353" d="M9 6v6m3-3H6"/></g><g transform="translate(229 263)"><circle cx="9" cy="9" r="9" fill="#FFF" stroke="#79BEFF"/><path stroke="#E55353" d="M9 6v6m3-3H6"/></g></g><g stroke-width="2"><g transform="translate(1 477)"><circle cx="7" cy="7" r="7" fill="#5CAAF4" stroke="#3A97EF"/><path stroke="#1576D1" d="M7 4.667v4.666M9.333 7H4.667"/></g><g transform="translate(108 303)"><circle cx="7" cy="7" r="7" fill="#5CAAF4" stroke="#3A97EF"/><path stroke="#1576D1" d="M7 4.667v4.666M9.333 7H4.667"/></g><g transform="translate(309 281)"><circle cx="7" cy="7" r="7" fill="#5CAAF4" stroke="#3A97EF"/><path stroke="#1576D1" d="M7 4.667v4.666M9.333 7H4.667"/></g><g transform="translate(429 198)"><circle cx="7" cy="7" r="7" fill="#5CAAF4" stroke="#3A97EF"/><path stroke="#1576D1" d="M7 4.667v4.666M9.333 7H4.667"/></g><g transform="translate(419 521)"><circle cx="7" cy="7" r="7" fill="#5CAAF4" stroke="#3A97EF"/><path stroke="#1576D1" d="M7 4.667v4.666M9.333 7H4.667"/></g><g transform="translate(453 387)"><circle cx="7" cy="7" r="7" fill="#5CAAF4" stroke="#3A97EF"/><path stroke="#1576D1" d="M7 4.667v4.666M9.333 7H4.667"/></g><g transform="translate(256 581)"><circle cx="7" cy="7" r="7" fill="#5CAAF4" stroke="#3A97EF"/><path stroke="#1576D1" d="M7 4.667v4.666M9.333 7H4.667"/></g></g><g fill="url(#a)" stroke="#3A97EF" stroke-width="2" transform="rotate(15 -1131.97 1020.469)"><path d="M139.5 24.5v28.058m0 15.524v31.532m0 10.918V129.5m5-105v9.05m0 9.823v22.32m0 10.306v40.872m-10-92.371v6.55m0 8.857v42.449m0 9.824v20.612m0 8.375V131.5M130 23v7.282m0 10.306v14.43m0 9.34v45.605m0 10.306v6.796M125 23v7.964m0 11.401v10.919m0 25.83v16.137m0 8.728v20.742"/><path d="M120 21v11.87m0 45.124v9.21m0 9.824v7.28m0 11.884V134" opacity=".969"/><path d="M115 21v17.416m0 46.573v25.347m0 9.34V136" opacity=".927"/><path d="M110 24.186v11.402m0 49.729v44.511" opacity=".89"/><path d="M105 19v15.821m0 51.79v18.068m0 11.402V137" opacity=".806"/><path d="M100 18v16.183m0 55.783v38.328" opacity=".79"/><path d="M95 17v17.994m0 52.756v20.13m0 9.34V139" opacity=".78"/><path d="M89.5 15.5v23.462m0 47.185v25.347m0 14.429V138.5" opacity=".748"/><path d="M84.5 14.5v27.463m0 50.695V140.5" opacity=".72"/><path d="M80 23.964v28.987m0 16.008v36.749m0 12.497V141" opacity=".682"/><path d="M75 14v31.389m0 12.496v19.647m0 14.558v10.79m0 11.401v14.075" opacity=".656"/><path d="M70 13v21.927m0 7.28v23.285m0 13.946v23.287m0 15.04V143" opacity=".631"/><path d="M65 12v8.697m0 9.823v21.708m0 9.953v25.348m0 29.47V143" opacity=".577"/><path d="M60 12v23.454m0 14.558v30.566m0 40.871V145" opacity=".557"/><path d="M55 11v22.238m0 14.429v29.116m0 47.056V146" opacity=".527"/><path d="M50 10v28.654m0 9.34v30.567m0 44.993v14.559" opacity=".487"/><path d="M45 16.792V38.5m0 10.918v30.436m0 43.546V147" opacity=".47"/><path d="M39.5 7.5v19.573m0 10.306V81.89m0 40.872v16.619" opacity=".436"/><path d="M35 7v22.816m0 10.306v36.266m0 43.416V148" opacity=".408"/><path d="M30 6v18.443m0 17.103v16.49m0 16.62v20.612m0 20.742V150" opacity=".385"/><path d="M25 17.492v31.049m0 17.102v73.981" opacity=".34"/><path d="M20 4v13.82m0 13.946v25.348m0 15.524v48.151m0 15.04V151" opacity=".304"/><path d="M15 11.352v50.212m0 18.069v19.163m0 10.92V152" opacity=".266"/><path d="M10 2v26.171m0 14.075v70.824m0 15.042V153" opacity=".202"/><path d="M5 1v45.697M5 63.67v60.647m0 16.007V154" opacity=".156"/><path d="M0 0v29.793m0 15.524v30.082m0 17.103v30.565m0 16.007V155" opacity=".068"/></g><g transform="rotate(15 -1290.066 1588.555)"><rect width="10" height="114" fill="#DEE3E8" rx="4"/><path fill="#ACB7C1" d="M6.424 3.196l.88.647a1 1 0 0 1 .407.81l-.51 104.983a1 1 0 0 1-.742.96l-.891.24a1 1 0 0 1-1.259-.974L5.122 3.848a.817.817 0 0 1 1.302-.652z"/><rect width="10" height="114" stroke="#0962B5" stroke-width="2" rx="4"/><path fill="#F1F4F6" d="M20 44h22v26H20z"/><path fill="#D1D8DE" d="M25.612 57.662l10.578.13a3 3 0 0 1 2.963 3.028l-.04 4.402a2 2 0 0 1-1.966 1.981l-11.505.194a3 3 0 0 1-3.05-2.987l-.017-3.735a3 3 0 0 1 3.037-3.013z"/><path stroke="#0962B5" stroke-width="2" d="M20 44h22v26H20z"/><path fill="#D1D8DE" stroke="#0962B5" stroke-width="2" d="M29 70h4v48h-4z"/><path fill="#F1F4F6" d="M10 4l10 40v26l-10 40z"/><path fill="#D1D8DE" d="M14.234 58.06l1.243.038a2 2 0 0 1 1.94 1.985l.044 6.524a25 25 0 0 1-.88 6.744l-2.572 9.426a1 1 0 0 1-1.965-.269l.131-22.46a2 2 0 0 1 2.06-1.987z"/><path stroke="#0962B5" stroke-width="2" d="M10 4l10 40v26l-10 40z"/><rect width="12" height="48" x="42" y="33" fill="#5CAAF4" rx="6"/><path fill="#2686E1" d="M49.977 36.302l.838.484a2 2 0 0 1 1 1.73l.044 36.478a2 2 0 0 1-1.03 1.751l-.771.429a1.217 1.217 0 0 1-1.808-1.061l-.105-38.75a1.22 1.22 0 0 1 1.832-1.06z"/><rect width="12" height="48" x="42" y="33" stroke="#0962B5" stroke-width="2" rx="6"/></g><path fill="#42D6A4" fill-rule="nonzero" stroke="#0962B5" stroke-width="2" d="M364.226 497.377C353.409 535.683 348 574.983 348 615.261v106.726c0 3.321 2.686 6.013 6 6.013 3.313 0 6-2.692 6-6.013V615.261c0-39.174 5.257-77.372 15.772-114.61.902-3.195-.951-6.518-4.14-7.422a5.998 5.998 0 0 0-7.406 4.148z"/><path stroke="#17B580" stroke-width="3" d="M356 721V614.435c0-39.114 5.333-77.254 16-114.435"/><g stroke-width="2" transform="translate(289 392)"><path stroke="#3A97EF" d="M28.848 2.059A19.918 19.918 0 0 0 20 0c-2.409 0-4.718.426-6.856 1.206A20.062 20.062 0 0 0 1.539 12.294 19.939 19.939 0 0 0 0 20m4.03 12.043a20.08 20.08 0 0 0 7.381 6.024A19.922 19.922 0 0 0 20 40m10.06-2.71a20.1 20.1 0 0 0 7.049-6.926A19.907 19.907 0 0 0 40 20c0-3.826-1.074-7.401-2.938-10.44"/><circle cx="20" cy="20" r="12.857" fill="#FF6A67" stroke="#FFF"/><path stroke="#FFF" d="M20 15.714v8.572M24.286 20h-8.572"/></g><g stroke-width="2" transform="translate(230 421)"><path stroke="#3A97EF" d="M28.945 4.904A16.946 16.946 0 0 0 17 0a16.92 16.92 0 0 0-9.443 2.862M0 17c0 2.663.612 5.182 1.703 7.426a17.074 17.074 0 0 0 5.606 6.543M17 34c3.013 0 5.842-.784 8.296-2.158a17.082 17.082 0 0 0 6.465-6.404A16.922 16.922 0 0 0 34 17a16.95 16.95 0 0 0-1.332-6.609"/><circle cx="17" cy="17" r="10.929" fill="#FF6A67" stroke="#FFF"/><path stroke="#FFF" d="M17 13.357v7.286M20.643 17h-7.286"/></g><g transform="translate(492 205)"><circle cx="80" cy="80" r="80" fill="#EAEEF2" stroke="#ACB7C1" stroke-width="2"/><path fill="#3A97EF" fill-rule="nonzero" stroke="#0962B5" stroke-width="2" d="M85 75h10a5 5 0 0 1 0 10H85v10a5 5 0 0 1-10 0V85H65a5 5 0 0 1 0-10h10V65a5 5 0 0 1 10 0v10zm-35.315 27.509a5 5 0 1 1 8.65-5.018 25.4 25.4 0 0 0 1.659 2.505C64.78 106.366 72.049 110 80 110c7.953 0 15.222-3.634 20.005-10.004a25.196 25.196 0 0 0 1.658-2.502 5 5 0 0 1 8.654 5.012 35.197 35.197 0 0 1-2.315 3.495C101.33 114.885 91.1 120 80 120c-11.097 0-21.325-5.114-28.002-13.998a35.41 35.41 0 0 1-2.313-3.493z"/><path stroke="#0962B5" stroke-width="2" d="M80 0v25M13 35.994v87.03m134-87.03v87.03M80 140v20"/><circle cx="80" cy="80" r="80" stroke="#0962B5" stroke-width="2"/><path fill="#1576D1" d="M108.5 99c.585.585.688 1.497.249 2.198l-1.249 1.992a24.557 24.557 0 0 1-4.864 5.633l-.136.117a32.322 32.322 0 0 1-6.528 4.324l-.972.486a.37.37 0 0 1-.378-.635l3.123-2.186a29.473 29.473 0 0 0 5.005-4.429l.076-.084A19.046 19.046 0 0 0 106.25 101l.706-1.695A.947.947 0 0 1 108.5 99z"/><path fill="#79BEFF" d="M79.5 61.75l-.058.007a2.526 2.526 0 0 0-2.192 2.184l-.122.95a.88.88 0 0 0 .872.991c.618 0 1.19-.332 1.496-.869l1.005-1.762A1.009 1.009 0 0 0 79.5 61.75zM65.25 77c-1.5 0-2.5.5-3 1.5-.168.336-.251.756-.25 1.261a1 1 0 0 0 1.572.818l.678-.472a10.257 10.257 0 0 1 4.413-1.738l3.587-.512a.43.43 0 0 0-.06-.857h-6.94z"/><path fill="#1576D1" d="M94 83c1.5 0 2.87-.741 3.37-1.741.168-.336.251-.756.25-1.261a1 1 0 0 0-1.571-.819l-.679.473a10.608 10.608 0 0 1-4.407 1.774l-3.778.597a.492.492 0 0 0 .077.977H94z"/><path fill="#79BEFF" d="M51.861 98.603l.02-.05a2.125 2.125 0 0 1 2.274-1.317l.095.014c1.112.159 2.1.792 2.708 1.735l1.173 1.818a19.226 19.226 0 0 0 5.388 5.505l1.133.766a.276.276 0 0 1-.271.48 23.424 23.424 0 0 1-5.69-3.73l-2.98-2.643a4.264 4.264 0 0 0-2.83-1.074 1.098 1.098 0 0 1-1.02-1.504z"/><path fill="#FFF" d="M67.562 8.186l-8.438 6.058a100 100 0 0 0-12.39 10.522L44 27.5a60.765 60.765 0 0 0-13.123 19.596l-1.753 4.205a100 100 0 0 0-5.56 17.922l-2.607 12.421a2 2 0 0 1-3.957-.41V43.509a12 12 0 0 1 2.97-7.902L24 31a76.389 76.389 0 0 1 15.918-13.785L40.25 17a69.463 69.463 0 0 1 19.903-8.84l6.568-1.752a1 1 0 0 1 .841 1.778z"/><path fill="#FFF" d="M39.026 50.372l.038-.325a17.993 17.993 0 0 1 4.16-9.549l1.203-1.414a27.649 27.649 0 0 1 9.019-6.98l.54-.261A4 4 0 0 1 59.66 34.7l.286 1.514a14.868 14.868 0 0 1-2.935 11.963l-.06.076a16.765 16.765 0 0 1-11.06 6.251l-2.39.303a4 4 0 0 1-4.475-4.436zM10 54.553v34.88a1 1 0 0 1-1.854.52L4.783 84.43a10 10 0 0 1-1.394-6.335l.66-5.767A88.386 88.386 0 0 1 7.5 56l.546-1.746a1 1 0 0 1 1.954.299z"/><path fill="#D1D8DE" d="M28.863 132.015l5.191 2.67a100 100 0 0 0 13.303 5.666l2.547.873A79.987 79.987 0 0 0 66.5 145l5.85.688a3 3 0 0 1 2.65 2.98v4.345a2 2 0 0 1-2.429 1.954l-8.297-1.821a84.27 84.27 0 0 1-18.774-6.521l-.494-.24a57.948 57.948 0 0 1-15.256-10.76l-2.044-2.007a1 1 0 0 1 1.157-1.603zM85 148.362v3.758a3 3 0 0 0 3.755 2.904l9.659-2.512a96.58 96.58 0 0 0 22.086-8.762l1.374-.753A44.93 44.93 0 0 0 137 129.5l2.415-3.422a20 20 0 0 0 3.66-11.294l.86-71.906a14 14 0 0 0-3.488-9.416L138.5 31.25a67.513 67.513 0 0 0-12.354-10.977l-1.976-1.363a1 1 0 0 0-1.347 1.451l1.927 2.389a55.197 55.197 0 0 1 9.398 17.195l.102.305a82.52 82.52 0 0 1 4.01 20l.353 4.771a100 100 0 0 1-1.088 23.827l-.72 4.324A60.385 60.385 0 0 1 129.5 113.5a67.374 67.374 0 0 1-13.731 16.763l-.269.237a56.733 56.733 0 0 1-19.23 11.158l-8.56 2.918a4 4 0 0 0-2.71 3.786zm66.951-94.33l1.152 3.56a71.671 71.671 0 0 1 3.147 15.158 82.972 82.972 0 0 1 .045 15.504l-.05.556a65.36 65.36 0 0 1-3.495 15.94l-.808 2.276a1 1 0 0 1-1.942-.335V54.34a1 1 0 0 1 1.951-.308z"/></g><g transform="translate(464 277)"><path fill="#D1D8DE" stroke="#0962B5" stroke-width="2" d="M188 4h14v8h-14z"/><path fill="#DEE3E8" fill-rule="nonzero" stroke="#0962B5" stroke-width="2" d="M204.987 8v24.854c0 9.09-2.187 18.046-6.38 26.12L145.4 161.458a40.05 40.05 0 0 1-25.165 20.206L107 185.22l1.566 5.78 13.235-3.556c12.494-3.357 22.996-11.79 28.939-23.236l53.209-102.484A62.648 62.648 0 0 0 211 32.854V8h-6.013z"/><path fill="#DEE3E8" fill-rule="nonzero" stroke="#0962B5" stroke-width="2" d="M11.013 8v24.854c0 9.09 2.187 18.046 6.38 26.12L70.6 161.458a40.05 40.05 0 0 0 25.165 20.206L109 185.22l-1.566 5.78-13.235-3.556c-12.494-3.357-22.996-11.79-28.939-23.236L12.051 61.724A62.648 62.648 0 0 1 5 32.854V8h6.013z"/><circle cx="208" cy="8" r="8" fill="#1AC98E" stroke="#0962B5" stroke-width="2"/><path fill="#87E8C7" d="M203.766 6.84a3.524 3.524 0 0 1 .845-1.91l.244-.28a5.657 5.657 0 0 1 1.866-1.404.936.936 0 0 1 1.314.665l.033.167a2.912 2.912 0 0 1-.592 2.398l-.015.02a3.415 3.415 0 0 1-2.253 1.243l-.483.057a.863.863 0 0 1-.96-.957z"/><path fill="#D1D8DE" stroke="#0962B5" stroke-width="2" d="M14 4h14v8H14z"/><circle cx="8" cy="8" r="8" fill="#1AC98E" stroke="#0962B5" stroke-width="2"/><path fill="#87E8C7" d="M3.766 6.84a3.524 3.524 0 0 1 .845-1.91l.244-.28A5.657 5.657 0 0 1 6.72 3.247a.936.936 0 0 1 1.314.665l.033.167a2.912 2.912 0 0 1-.592 2.398l-.015.02A3.415 3.415 0 0 1 5.207 7.74l-.483.057a.863.863 0 0 1-.96-.957z"/><path fill="#42D6A4" fill-rule="nonzero" stroke="#0962B5" stroke-width="2" d="M102 187.24v258.52c0 2.894 2.686 5.24 6 5.24s6-2.346 6-5.24V187.24c0-2.894-2.686-5.24-6-5.24s-6 2.346-6 5.24z"/><path stroke="#17B580" stroke-width="3" d="M110 191.5v256.062"/><path fill="#42D6A4" fill-rule="nonzero" stroke="#0962B5" stroke-width="2" d="M107.999 194c-11.923 0-21.98-3.447-30.184-9.709-6.457-4.928-11.388-11.27-15.144-18.535a6 6 0 1 1 10.66-5.51C80.295 173.716 91.149 182 108 182c16.851 0 27.705-8.285 34.669-21.754a6 6 0 0 1 10.66 5.51c-3.756 7.265-8.687 13.607-15.144 18.535C129.981 190.554 119.923 194 108 194z"/><path stroke="#17B580" stroke-width="3" d="M108 190c11.048 0 20.367-3.173 27.97-8.938 5.982-4.537 10.55-10.375 14.03-17.062"/><path fill="#A9EDD6" d="M63.766 162.84a3.524 3.524 0 0 1 .845-1.91l.244-.28a5.657 5.657 0 0 1 1.866-1.404.936.936 0 0 1 1.314.665l.033.167a2.912 2.912 0 0 1-.592 2.398l-.015.02a3.415 3.415 0 0 1-2.253 1.243l-.483.057a.863.863 0 0 1-.96-.957z"/><path fill="#1576D1" d="M111 16v5.882c0 .735-.171 1.46-.5 2.118a3.354 3.354 0 0 1-1.5 1.5 1.118 1.118 0 0 1-1.5-.5 1.029 1.029 0 0 1 .538-1.415l.212-.085a2.139 2.139 0 0 0 1.34-1.843l.377-5.658a.534.534 0 0 1 .533-.499.5.5 0 0 1 .5.5z"/></g></g></svg>
